<svg width="42" height="41" viewBox="0 0 42 41" fill="none" xmlns="http://www.w3.org/2000/svg">
<path d="M0.162109 20.4993C0.162109 12.6287 0.162109 8.6934 1.93951 5.80557C2.92211 4.20907 4.26571 2.86547 5.86221 1.88287C8.75004 0.105469 12.7207 0.105469 20.6621 0.105469C28.6035 0.105469 32.5742 0.105469 35.462 1.88287C37.0585 2.86548 38.4021 4.20907 39.3847 5.80557C41.1621 8.6934 41.1621 12.6287 41.1621 20.4993C41.1621 28.3698 41.1621 32.3051 39.3847 35.193C38.4021 36.7894 37.0585 38.133 35.462 39.1157C32.5742 40.893 28.6035 40.893 20.6621 40.893C12.7207 40.893 8.75004 40.893 5.86221 39.1157C4.26571 38.133 2.92211 36.7894 1.93951 35.193C0.162109 32.3051 0.162109 28.3698 0.162109 20.4993Z" fill="#032343"/>
<path fill-rule="evenodd" clip-rule="evenodd" d="M15.439 15.3906V25.4834C15.439 28.2589 13.1681 30.5299 10.3926 30.5299V20.4371C10.3926 17.6616 12.6634 15.3906 15.439 15.3906Z" fill="white"/>
<path fill-rule="evenodd" clip-rule="evenodd" d="M20.4859 10.3438H30.5786C30.5786 13.1193 28.3078 15.3901 25.5322 15.3901H15.4395C15.4395 12.6146 17.7102 10.3438 20.4859 10.3438Z" fill="white"/>
<path d="M23.0053 25.5027C24.4104 25.5027 25.5496 24.3636 25.5496 22.9584C25.5496 21.5532 24.4104 20.4141 23.0053 20.4141C21.6001 20.4141 20.4609 21.5532 20.4609 22.9584C20.4609 24.3636 21.6001 25.5027 23.0053 25.5027Z" fill="url(#paint0_linear_4342_24255)"/>
<defs>
<linearGradient id="paint0_linear_4342_24255" x1="22.9957" y1="27.1716" x2="10.1437" y2="18.1166" gradientUnits="userSpaceOnUse">
<stop stop-color="#A8FF78"/>
<stop offset="1" stop-color="#1FFFBB"/>
</linearGradient>
</defs>
</svg>
